<svg width="38" height="38" viewBox="0 0 38 38" fill="none" xmlns="http://www.w3.org/2000/svg">
<path fill-rule="evenodd" clip-rule="evenodd" d="M28.2781 33.0725C29.3164 33.9929 29.4688 33.385 30.0576 33.4769C30.7879 33.5311 30.8425 32.9454 31.0654 33.3512C31.4927 34.5909 30.9584 34.6544 30.615 35.1722C30.364 36.0026 30.4032 36.0051 29.6527 36.285C29.1981 36.4608 29.1238 35.7253 28.9586 35.4489C28.2849 34.5723 27.9721 33.3993 28.2781 33.0725ZM1.29871 13.8818C2.1196 13.2604 3.87813 12.0577 4.86854 11.6856C6.78392 11.1546 7.56631 11.4849 7.46036 9.04798C7.4548 8.71154 7.53821 8.08259 7.68103 8.08406C8.64998 8.41515 8.92808 9.1757 9.19466 7.80458C9.57328 6.79387 10.3277 5.48473 11.2897 4.88434C12.5214 4.03515 13.2926 6.33825 14.2954 5.77004C14.7342 5.50072 15.2795 4.39941 15.7329 3.63622C16.4721 2.17081 17.3613 3.14756 17.3044 1.97475C17.3313 1.8962 17.4018 1.84872 17.5735 1.84064C19.1733 2.11546 20.1619 3.1019 22.2763 2.54919C22.4148 2.51712 22.5189 2.50594 22.5104 2.5706C21.6812 4.08755 20.2826 5.02682 22.0991 5.97611C22.9969 6.48804 24.1841 8.78725 25.5283 8.41042C27.8552 7.71698 26.7758 5.42203 27.3319 4.1069C28.2955 2.35827 27.9204 2.43371 28.311 1.76669C28.3793 1.6848 28.3897 1.65085 28.4235 1.75164C29.8784 4.8682 29.2188 4.13807 29.5602 4.96787C29.6279 5.10642 29.7187 5.17864 29.834 5.24795C31.2952 5.84303 30.6423 5.80146 31.4879 8.95634C32.1844 11.8851 34.1012 10.5446 34.3609 13.0286C34.4068 13.3095 34.458 13.5777 34.5844 13.8162C34.6725 13.9915 34.8358 14.1527 35.0019 14.2734C36.4616 15.1337 35.6156 15.7024 36.411 16.6563C38.0898 18.7425 38.0231 18.0869 37.4581 21.7402C37.2073 23.7431 35.1242 25.4797 33.9254 27.2455C33.608 27.7962 33.3424 28.9767 33.1805 29.6438C33.0819 30.4028 32.663 30.3384 31.6929 30.3991C30.4424 30.4259 30.7114 31.671 29.4751 30.805C29.3323 30.7127 29.1943 30.6374 29.0326 30.6243C28.305 30.5748 27.7267 31.2191 27.0326 31.2414C26.1672 31.291 24.7999 29.8579 24.3719 29.2665C24.0873 28.9391 24.0247 28.3236 23.6928 27.9575C22.4227 26.8502 21.196 27.7272 20.4273 25.6674C20.0491 24.675 19.795 24.1639 18.9264 23.8285C18.1345 23.5223 16.8623 23.2982 16.4879 23.2826C15.9807 23.3241 14.8024 23.7037 13.7251 24.0954C10.5808 25.1891 11.3838 25.421 10.1773 25.9311C8.62744 26.3526 7.94132 25.7809 6.58078 26.6783C5.48192 27.369 4.52569 28.0778 3.29235 27.3263C3.01988 26.9677 3.49951 25.5625 3.23844 24.8676C2.74294 23.9219 2.38482 22.8765 1.88569 21.9239C0.0152723 18.9132 -0.0602565 19.4226 0.557762 18.0169C0.71219 15.9519 -0.398353 15.3706 1.29871 13.8818Z" fill="#1D9F42"/>
</svg>
