<svg width="48" height="48" viewBox="0 0 48 48" fill="none" xmlns="http://www.w3.org/2000/svg">
<g clip-path="url(#clip0_1092_1540)">
<path d="M48 24C48 37.2562 37.2562 48 24 48C10.7438 48 0 37.2562 0 24L24 0C37.2562 0 48 10.7438 48 24Z" fill="#0052B4"/>
<path d="M24.075 12.6656V0.09375C10.7812 0.09375 0 10.8844 0 24.1781H12.5625V17.1L19.6312 24.1781H24.0094L24.075 24.1125V19.7344L17.0062 12.6656H24.075Z" fill="#F0F0F0"/>
<path fill-rule="evenodd" clip-rule="evenodd" d="M2.85938 12.7875C6.23438 7.13437 9.80625 4.29375 12.8531 2.85938H23.5781V9.075H9.075V23.5687H2.85938V12.7875ZM15.1125 12.1875L23.5781 20.6531V23.5687L12.1875 12.1875H15.1125Z" fill="#D80027"/>
<path d="M13.9592 27.8438L15.2998 30.6281L18.3373 29.9344L16.9779 32.7094L19.4154 34.6312L16.3779 35.3156L16.3873 38.4L13.9592 36.4688L11.5311 38.3906L11.5404 35.3063L8.50293 34.6219L10.9404 32.7L9.58105 29.925L12.6186 30.6188L13.9592 27.8438Z" fill="white"/>
<path d="M35.8404 33.1035L36.5154 34.5004L38.0342 34.1535L37.3498 35.541L38.5686 36.4973L37.0498 36.8348V38.3816L35.8404 37.4254L34.6311 38.3816V36.8441L33.1123 36.5066L34.3311 35.5504L33.6467 34.1629L35.1654 34.5098L35.8404 33.1035Z" fill="white"/>
<path d="M29.5875 18.3477L30.2625 19.7352L31.7812 19.3883L31.0969 20.7758L32.3156 21.732L30.7969 22.0789V23.6258L29.5875 22.6508L28.3781 23.6258V22.0789L26.8594 21.732L28.0781 20.7758L27.3938 19.3883L28.9125 19.7352L29.5875 18.3477Z" fill="white"/>
<path d="M35.84 9.91016L36.515 11.307L38.0338 10.9602L37.3494 12.3477L38.5682 13.3039L37.0494 13.6414V15.1883L35.84 14.232L34.6213 15.1883V13.6414L33.1025 13.3039L34.3213 12.3477L33.6369 10.9602L35.1557 11.307L35.84 9.91016Z" fill="white"/>
<path d="M41.2965 16.2383L41.9715 17.6258L43.4902 17.2789L42.8059 18.6664L44.0246 19.6227L42.5059 19.9695V21.5164L41.2965 20.5414L40.0871 21.5164V19.9695L38.5684 19.6227L39.7871 18.6664L39.1027 17.2789L40.6215 17.6258L41.2965 16.2383Z" fill="white"/>
<path d="M37.3875 23.625L37.9125 25.2375H39.6188L38.25 26.2312L38.775 27.8438L37.3875 26.8406L36.0094 27.8438L36.5344 26.2312L35.1562 25.2375H36.8625L37.3875 23.625Z" fill="white"/>
</g>
<defs>
<clipPath id="clip0_1092_1540">
<rect width="48" height="48" fill="white"/>
</clipPath>
</defs>
</svg>
